# xmcd CD database file
#
# Track frame offsets:
#	150
#	23107
#	55091
#	66896
#	88188
#	110875
#	141897
#	173117
#	198492
#	233683
#	256951
#	269996
#
# Disc length: 3947 seconds
#
# Revision: 0
# Processed by: cddbd v1.4PL0 Copyright (c) Steve Scherf et al.
# Submitted via: CDex 1.50Beta7
#
DISCID=b40f690c
DTITLE=Mark Elf - New York Cats
DYEAR=1998
DGENRE=Jazz
TTITLE0=Brownie Speaks
TTITLE1=Blues In The Night
TTITLE2=From This Moment On
TTITLE3=Smoke Gets In Your Eyes
TTITLE4=No More Blues
TTITLE5=The Conflict
TTITLE6=Stompin' At The Savoy
TTITLE7=Heartfelt
TTITLE8=Walker's Walk
TTITLE9=Pemble's Tremble
TTITLE10=Lady Be Good
TTITLE11=Blue For Jenny
EXTD=YEAR: 1998
EXTT0=
EXTT1=
EXTT2=
EXTT3=
EXTT4=
EXTT5=
EXTT6=
EXTT7=
EXTT8=
EXTT9=
EXTT10=
EXTT11=
PLAYORDER=
